<svg width="150" height="150" fill="none" xmlns="http://www.w3.org/2000/svg"><circle cx="75" cy="75" r="74.5" stroke="#06F"/><path d="M65.25 68.5V68h-9.043l4.022-4.021 11.18-11.18 3.091-3.092 3.091 3.092 11.18 11.18L92.793 68H83.75v22.75h-18.5V68.5Zm9.604-12.96-.354-.354-.354.354-7.731 7.731-.854.854h3.564v22.75h10.75v-22.75h3.564l-.854-.854-7.731-7.731Zm-9.037 41.652a1.937 1.937 0 0 1 1.37-.567h14.626a1.937 1.937 0 1 1 0 3.875H67.186a1.937 1.937 0 0 1-1.37-3.308Z" fill="#06F" stroke="#fff"/></svg>